<?xml version="1.0" encoding="UTF-8"?><svg id="Layer_1" xmlns="http://www.w3.org/2000/svg" viewBox="0 0 457.82 92.52"><path d="m54.56,1.44l9.72.09c.33,0,.5.17.49.5l-.07,20.68c0,.18.14.32.32.32.08,0,.15-.03.21-.08,9.42-8.51,24.25-2.94,24.95,10.39.19,3.65.19,12.34-.02,26.07,0,.39-.21.59-.6.59h-9.51c-.35,0-.52-.17-.52-.52-.05-7.76-.07-15.5-.04-23.21.03-8-10.29-10.12-13.74-3.47-.67,1.29-1,3.32-.99,6.09.02,6.86,0,13.73-.03,20.6,0,.34-.18.51-.52.51h-9.93c-.29,0-.53-.24-.53-.53V2.25c0-.55.27-.82.81-.81Z"/><path d="m326.01,24c.33-.15.57-.38.72-.71.13-.27.3-.49.53-.67,3.44-2.65,6.94-3.86,10.51-3.62,26.19,1.74,23.34,44.02-2.32,41.84-4.03-.35-7.02-1.81-9.4-4.94-.15-.21-.44-.26-.65-.12-.15.1-.22.28-.2.46l.36,3.07c.05.46-.15.69-.62.69h-9.41c-.29,0-.53-.24-.53-.53V2c0-.31.25-.56.55-.56,0,0,0,0,0,0l8.7.09c.97,0,1.45.5,1.44,1.48l-.27,20.61c0,.43.19.55.58.38Zm9.32,27.41c5.51.02,10-5.06,10.02-11.35.02-6.28-4.43-11.4-9.94-11.41-5.51-.02-10,5.06-10.02,11.35-.02,6.28,4.43,11.4,9.94,11.41Z"/><path d="m17.76,12.23l-17.25.06c-.28,0-.51-.23-.51-.51h0V2.01c0-.28.23-.51.51-.51h46.78c.28,0,.51.23.51.51h0l.03,9.73c0,.28-.23.51-.51.51h-17.06c-.28,0-.51.23-.51.51h0v46.23c0,.28-.23.51-.51.51h-10.49c-.28,0-.51-.23-.51-.51h0s.03-46.25.03-46.25c0-.28-.23-.51-.51-.51h0Z"/><circle cx="104.18" cy="6.94" r="5.47"/><path d="m174.58,34.32l13.11-14.21c.07-.07.16-.11.25-.11h13.25c.19,0,.35.16.35.35,0,.09-.04.17-.1.24l-15.45,16.11c-.12.12-.13.31-.03.45l15.74,22.3c.11.16.07.38-.09.49-.06.04-.13.06-.2.06h-12.42c-.11,0-.22-.06-.28-.15l-10.07-14.65c-.11-.16-.33-.2-.49-.1-.02.01-.04.03-.05.05l-4,4.19c-.06.06-.1.15-.1.24v10.07c0,.19-.16.35-.35.35h-10.06c-.19,0-.35-.16-.35-.35l.02-57.8c0-.19.16-.35.35-.35h10.05c.19,0,.35.16.35.35l-.04,32.23c0,.19.15.35.34.36.1,0,.2-.04.27-.12Z"/><circle cx="211.03" cy="8.04" r="5.47"/><path d="m128.59,24.52c-.01.15.1.28.25.29.08,0,.16-.03.22-.09,8.6-10.48,25.06-5.76,25.57,8.24.23,6.25.24,15.11.03,26.58,0,.31-.16.46-.47.46h-9.67c-.37,0-.67-.3-.67-.68,0,0,0-.01,0-.02.3-8.05.26-15.92-.11-23.59-.39-8.03-10.83-9.16-13.69-2.79-.51,1.13-.76,3.11-.77,5.94-.01,6.86-.03,13.73-.04,20.61,0,.35-.18.53-.53.53h-9.46c-.5,0-.75-.25-.75-.75V20.75c0-.5.25-.75.75-.75h9.03c.53,0,.76.27.7.79l-.39,3.73Z"/><path d="m235.95,24.14c0,.15.11.29.27.29.08,0,.16-.03.21-.08,9.56-10.5,25.22-4.71,25.5,9.59.17,8.53.16,17.06,0,25.59,0,.31-.17.47-.48.47h-9.64c-.34,0-.51-.17-.52-.51-.05-7.61-.07-15.18-.06-22.73.01-10.66-14.77-11.07-14.72,1.48.03,7.08.03,14.16-.02,21.24,0,.35-.18.52-.52.52h-9.59c-.35,0-.63-.28-.63-.63h0V20.54c0-.3.24-.54.54-.54h9.33c.44,0,.64.23.61.67l-.27,3.47Z"/><path d="m379.62,61.35c-11.57-.14-20.84-9.78-20.7-21.52.14-11.75,9.64-21.15,21.22-21.01,11.58.14,20.84,9.78,20.7,21.52-.14,11.75-9.64,21.15-21.22,21.01Zm.31-9.85c5.61-.02,10.14-5.14,10.12-11.44-.02-6.3-4.59-11.38-10.2-11.36-5.61.02-10.14,5.14-10.12,11.44.02,6.3,4.59,11.38,10.2,11.36Z"/><rect x="98.74" y="20" width="10.76" height="40" rx=".65" ry=".65"/><rect x="205.75" y="20" width="11" height="40" rx=".7" ry=".7"/><path d="m303.9,28.72c-.26,0-.47.2-.48.46,0,.09.02.17.07.25,6.3,10.64.43,22.67-9.8,26.78-3.87,1.55-8.16,1.59-12.85.12-.4-.12-.72-.01-.95.32l-1.8,2.55c-.22.31-.21.62.03.92,2.66,3.31,9.24,2.49,13.1,2.63,4.22.15,7.22.59,9,1.32,6.5,2.66,9.2,9.34,7.32,16.03-3.9,13.92-27.68,16.51-35.98,5.88-4.33-5.53-3.79-11.41,1.61-17.63.21-.25.2-.48-.05-.69-5.74-4.99-3.79-9.62-.41-15.42.19-.34.16-.66-.1-.95-8.56-9.61-5.39-25.25,6.37-29.76,7.62-2.92,21.63-1.54,30.77-1.52.31,0,.47.16.48.47l.19,7.68c.01.41-.18.61-.59.6l-5.93-.04Zm-16.78,18.97c4.57-.12,8.16-4.24,8.03-9.2h0c-.13-4.96-3.94-8.89-8.5-8.77-4.57.12-8.16,4.24-8.03,9.2h0c.13,4.96,3.94,8.89,8.5,8.77Zm-7.72,26.47c-3.36,11.14,15.13,9.32,17.61,4.86,4.72-8.5-12.42-6.63-15.66-6.41-.91.06-1.69.68-1.95,1.55Z"/><path d="m420.43,48.27l-7.62,11.52c-.07.11-.19.17-.32.17l-11.34.12c-.22,0-.39-.17-.4-.38,0-.08.02-.16.07-.23l13.64-19.19c.1-.14.1-.32,0-.46l-13.68-19.2c-.13-.17-.09-.42.08-.54.07-.05.15-.08.24-.08h11.84c.13,0,.26.06.33.17l7.59,11.3c.12.18.36.23.54.11.04-.03.08-.07.11-.11l7.43-11.29c.07-.11.2-.18.33-.18h11.37c.22,0,.39.18.4.39,0,.08-.03.17-.08.24l-13.48,18.82c-.1.14-.1.32,0,.46l13.86,19.54c.12.18.08.42-.1.54-.06.04-.14.07-.22.07l-11.83-.1c-.12,0-.24-.07-.31-.17l-7.8-11.53c-.12-.18-.36-.22-.54-.1-.04.03-.08.07-.11.11Z"/><path d="m457.82,6.51c0,3.69-3.04,6.59-7,6.59s-7.04-2.9-7.04-6.59,3.13-6.51,7.04-6.51,7,2.9,7,6.51Zm-12.3,0c0,2.9,2.25,5.2,5.33,5.2s5.21-2.3,5.21-5.16-2.21-5.24-5.25-5.24-5.29,2.34-5.29,5.2Zm4.21,3.41h-1.58V3.41c.63-.12,1.5-.2,2.63-.2,1.29,0,1.88.2,2.38.48.38.28.67.79.67,1.43,0,.71-.58,1.27-1.42,1.51v.08c.67.24,1.04.71,1.25,1.59.21.99.33,1.39.5,1.63h-1.71c-.21-.24-.33-.83-.54-1.59-.13-.71-.54-1.03-1.42-1.03h-.75v2.62Zm.04-3.69h.75c.88,0,1.58-.28,1.58-.95,0-.6-.46-.99-1.46-.99-.42,0-.71.04-.88.08v1.87Z"/></svg>